<?xml version="1.0" encoding="UTF-8" standalone="no"?>
<!-- Created with Inkscape (http://www.inkscape.org/) -->

<svg
   width="83.565994mm"
   height="20.15066mm"
   viewBox="0 0 83.565994 20.15066"
   version="1.1"
   id="svg1"
   xml:space="preserve"
   xmlns="http://www.w3.org/2000/svg"
   xmlns:svg="http://www.w3.org/2000/svg"><defs
     id="defs1" /><g
     id="layer1"
     transform="translate(-5.0946515,-255.62777)"><path
       style="fill:#000000"
       d="m 6.1953186,275.52443 v -0.254 H 5.8989852 5.6026519 v -0.29634 -0.29633 h -0.2539999 -0.254 v -8.97467 -8.97466 h 0.254 0.2539999 v -0.254 -0.254 h 0.2963333 0.2963334 v -0.29634 -0.29633 H 46.919982 87.644646 v 0.29633 0.29634 h 0.254 0.254 v 0.254 0.254 h 0.254 0.254 v 8.97466 8.97467 h -0.254 -0.254 v 0.29633 0.29634 h -0.254 -0.254 v 0.254 0.254 H 46.919982 6.1953186 Z M 87.05198,274.42376 v -0.254 h 0.296333 0.296333 v -8.46667 -8.46666 H 87.348313 87.05198 v -0.254 -0.254 H 46.877649 6.7033185 v 0.254 0.254 h -0.254 -0.2539999 v 8.46666 8.46667 h 0.2539999 0.254 v 0.254 0.254 H 46.877649 87.05198 Z"
       id="path50953" /></g></svg>
